<?xml version="1.0" encoding="UTF-8" standalone="no"?>
<!-- Created with Inkscape (http://www.inkscape.org/) -->

<svg
   xmlns:dc="http://purl.org/dc/elements/1.1/"
   xmlns:cc="http://creativecommons.org/ns#"
   xmlns:rdf="http://www.w3.org/1999/02/22-rdf-syntax-ns#"
   xmlns:svg="http://www.w3.org/2000/svg"
   xmlns="http://www.w3.org/2000/svg"
   xmlns:sodipodi="http://sodipodi.sourceforge.net/DTD/sodipodi-0.dtd"
   xmlns:inkscape="http://www.inkscape.org/namespaces/inkscape"
   width="128"
   height="128"
   id="svg2"
   version="1.1"
   inkscape:version="0.48.4 r9939"
   sodipodi:docname="racquetball-icon.svg"
   inkscape:export-filename="/home/user/Documents/art/racquetball-icon.png"
   inkscape:export-xdpi="90"
   inkscape:export-ydpi="90">
  <defs
     id="defs4" />
  <sodipodi:namedview
     id="base"
     pagecolor="#ffffff"
     bordercolor="#666666"
     borderopacity="1.0"
     inkscape:pageopacity="0.0"
     inkscape:pageshadow="2"
     inkscape:zoom="1.979899"
     inkscape:cx="63.872754"
     inkscape:cy="55.249324"
     inkscape:document-units="px"
     inkscape:current-layer="g3043"
     showgrid="false"
     inkscape:window-width="1243"
     inkscape:window-height="610"
     inkscape:window-x="137"
     inkscape:window-y="132"
     inkscape:window-maximized="0" />
  <metadata
     id="metadata7">
    <rdf:RDF>
      <cc:Work
         rdf:about="">
        <dc:format>image/svg+xml</dc:format>
        <dc:type
           rdf:resource="http://purl.org/dc/dcmitype/StillImage" />
        <dc:title></dc:title>
      </cc:Work>
    </rdf:RDF>
  </metadata>
  <g
     inkscape:label="base"
     inkscape:groupmode="layer"
     id="layer1"
     transform="translate(0,-924.36218)"
     sodipodi:insensitive="true"
     style="display:inline">
    <rect
       style="fill:#4d4d4d"
       id="rect3023"
       width="128"
       height="128"
       x="0"
       y="924.36212"
       rx="24"
       ry="24" />
  </g>
  <g
     inkscape:groupmode="layer"
     id="layer2"
     inkscape:label="logo"
     sodipodi:insensitive="true"
     style="display:none">
    <path
       transform="translate(0,-924.36218)"
       style="font-size:40px;font-style:normal;font-weight:normal;line-height:125%;letter-spacing:0px;word-spacing:0px;fill:#000000;fill-opacity:1;stroke:none;font-family:Sans"
       inkscape:connector-curvature="0"
       id="path2990"
       d="m 56.884789,983.58562 c 2.956758,0.80012 5.822604,2.50995 8.597539,5.12903 2.820285,2.61922 5.64064,6.22063 8.461072,10.80407 l 13.988062,22.26258 -14.806876,0 -13.032781,-20.8984 c -3.366294,-5.45679 -6.641543,-9.07604 -9.825761,-10.8588 -3.138836,-1.78243 -7.437603,-2.67356 -12.896311,-2.67356 l -15.011578,0 0,34.43076 -13.7833567,0 0,-81.46615 31.1149077,0 c 11.64529,9e-5 20.333799,1.94619 26.065559,5.83844 5.731618,3.89253 8.597463,9.76722 8.597543,17.62465 -8e-5,5.12929 -1.501236,9.38533 -4.503476,12.76827 -2.956898,3.38323 -7.278409,5.72938 -12.964543,7.03911 m -34.526634,-34.21252 0,28.9195 17.331551,0 c 6.641436,0 11.64529,-1.21862 15.01158,-3.65588 3.411658,-2.4736 5.117519,-6.09294 5.117581,-10.85848 -6.2e-5,-4.7653 -1.705923,-8.34829 -5.117581,-10.74924 -3.36629,-2.43726 -8.370144,-3.6559 -15.01158,-3.6559 l -17.331551,0" />
    <path
       transform="translate(0,-924.36218)"
       style="font-size:40px;font-style:normal;font-weight:normal;line-height:125%;letter-spacing:0px;word-spacing:0px;fill:#000000;fill-opacity:1;stroke:none;font-family:Sans"
       inkscape:connector-curvature="0"
       id="path2992"
       d="m 88.295037,955.00318 c -2.732281,10e-6 -4.625263,0.31185 -5.678956,0.93554 -1.053707,0.62371 -1.580556,1.68766 -1.580551,3.19185 -5e-6,1.19848 0.392068,2.15236 1.176224,2.86166 0.796394,0.69708 1.874598,1.04561 3.234615,1.04561 1.874595,0 3.375504,-0.66039 4.502732,-1.98116 1.139451,-1.33298 1.709184,-3.10012 1.709201,-5.3014 l 0,-0.7521 -3.363265,0 m 6.744908,-1.39415 0,11.7218 -3.381643,0 0,-3.11847 c -0.771913,1.24739 -1.73372,2.1707 -2.885425,2.76994 -1.151731,0.587 -2.560747,0.88051 -4.227054,0.88051 -2.107408,0 -3.785975,-0.58701 -5.035708,-1.76102 -1.237488,-1.18625 -1.85623,-2.76993 -1.856228,-4.75109 -2e-6,-2.31133 0.771893,-4.05401 2.315691,-5.22803 1.556039,-1.17401 3.871728,-1.76102 6.947071,-1.76103 l 4.741653,0 0,-0.33018 c -1.7e-5,-1.55311 -0.514614,-2.75158 -1.543794,-3.59543 -1.016958,-0.85603 -2.450479,-1.28406 -4.300569,-1.28408 -1.176233,2e-5 -2.321824,0.14066 -3.436779,0.42192 -1.114968,0.28129 -2.187045,0.7032 -3.216236,1.26573 l 0,-3.11847 c 1.23748,-0.47692 2.438207,-0.83158 3.602185,-1.06396 1.163963,-0.24456 2.297303,-0.36685 3.400022,-0.36687 2.977303,2e-5 5.201099,0.77046 6.671394,2.31134 1.470261,1.54091 2.2054,3.87671 2.20542,7.00739" />
    <path
       transform="translate(0,-924.36218)"
       style="font-size:40px;font-style:normal;font-weight:normal;line-height:125%;letter-spacing:0px;word-spacing:0px;fill:#000000;fill-opacity:1;stroke:none;font-family:Sans"
       inkscape:connector-curvature="0"
       id="path2994"
       d="m 116.83684,945.57438 0,3.15516 c -0.9557,-0.52585 -1.91751,-0.91718 -2.88542,-1.17402 -0.9557,-0.26903 -1.92364,-0.40355 -2.90381,-0.40357 -2.19317,2e-5 -3.89625,0.69709 -5.10922,2.09122 -1.21299,1.38193 -1.81948,3.32639 -1.81947,5.83338 -1e-5,2.50702 0.60648,4.45759 1.81947,5.85173 1.21297,1.38191 2.91605,2.07287 5.10922,2.07286 0.98017,1e-5 1.94811,-0.1284 2.90381,-0.38521 0.96791,-0.26905 1.92972,-0.6665 2.88542,-1.19236 l 0,3.11847 c -0.94345,0.44026 -1.92364,0.77045 -2.94056,0.99058 -1.00471,0.22012 -2.07678,0.33019 -3.21624,0.33019 -3.09985,0 -5.56256,-0.97224 -7.38815,-2.91669 -1.8256,-1.94446 -2.7384,-4.56764 -2.73839,-7.86957 -1e-5,-3.35082 0.91891,-5.98623 2.75677,-7.90625 1.85009,-1.91998 4.38019,-2.87998 7.59031,-2.88 1.04144,2e-5 2.05838,0.11008 3.05084,0.33019 0.99242,0.20792 1.95422,0.52588 2.88542,0.95389" />
    <path
       transform="translate(0,-924.36218)"
       style="font-size:40px;font-style:normal;font-weight:normal;line-height:125%;letter-spacing:0px;word-spacing:0px;fill:#000000;fill-opacity:1;stroke:none;font-family:Sans"
       inkscape:connector-curvature="0"
       id="path2996"
       d="m 78.675535,980.69271 c -9e-6,2.48256 0.508467,4.43313 1.525412,5.85173 1.029186,1.40637 2.438208,2.10956 4.227056,2.10956 1.78883,0 3.197842,-0.70319 4.227057,-2.10956 1.029177,-1.4186 1.54377,-3.36917 1.543789,-5.85173 -1.9e-5,-2.48253 -0.514612,-4.42699 -1.543789,-5.83338 -1.029215,-1.41858 -2.438227,-2.12788 -4.227057,-2.1279 -1.788848,2e-5 -3.19787,0.70932 -4.227056,2.1279 -1.016945,1.40639 -1.525421,3.35085 -1.525412,5.83338 m 11.523314,7.17249 c -0.710646,1.22294 -1.611201,2.13402 -2.701636,2.73326 -1.07822,0.58702 -2.376969,0.88052 -3.896246,0.88052 -2.487233,0 -4.514986,-0.99059 -6.083278,-2.97173 -1.55605,-1.98115 -2.334071,-4.58599 -2.334071,-7.81454 0,-3.22852 0.778021,-5.83337 2.334071,-7.81453 1.568292,-1.98112 3.596045,-2.9717 6.083278,-2.97172 1.519277,2e-5 2.818026,0.29964 3.896246,0.89885 1.090435,0.58703 1.99099,1.492 2.701636,2.71492 l 0,-3.11849 3.381643,0 0,28.35979 -3.381643,0 0,-10.89633" />
    <path
       transform="translate(0,-924.36218)"
       style="font-size:40px;font-style:normal;font-weight:normal;line-height:125%;letter-spacing:0px;word-spacing:0px;fill:#000000;fill-opacity:1;stroke:none;font-family:Sans"
       inkscape:connector-curvature="0"
       id="path2998"
       d="m 100.19675,982.83896 0,-12.43722 3.38164,0 0,12.30881 c -1e-5,1.94447 0.37982,3.40587 1.13947,4.38421 0.75964,0.96612 1.89911,1.44917 3.4184,1.44917 1.82559,0 3.26524,-0.58089 4.31894,-1.74267 1.06594,-1.16178 1.59892,-2.74548 1.59893,-4.75109 l 0,-11.64843 3.38164,0 0,20.54525 -3.38164,0 0,-3.15516 c -0.82092,1.2474 -1.77659,2.17682 -2.86704,2.78829 -1.07822,0.59925 -2.33408,0.89886 -3.76759,0.89886 -2.36471,0 -4.15967,-0.73377 -5.38489,-2.20129 -1.22524,-1.46751 -1.83786,-3.61375 -1.83786,-6.43873 m 8.50925,-12.9325 0,0" />
    <path
       transform="translate(0,-924.36218)"
       style="font-size:40px;font-style:normal;font-weight:normal;line-height:125%;letter-spacing:0px;word-spacing:0px;fill:#000000;fill-opacity:1;stroke:none;font-family:Sans"
       inkscape:connector-curvature="0"
       id="path3000"
       d="m 105.44909,1011.6136 0,1.651 -15.548207,0 c 0.147019,2.3235 0.845404,4.0967 2.095146,5.3197 1.261985,1.2107 3.014069,1.816 5.256253,1.816 1.298729,0 2.554597,-0.1589 3.767598,-0.4769 1.22521,-0.3179 2.43819,-0.7949 3.63893,-1.4308 l 0,3.1918 c -1.213,0.5137 -2.4566,0.905 -3.73083,1.174 -1.274255,0.2691 -2.566878,0.4036 -3.877858,0.4036 -3.283641,0 -5.887254,-0.9538 -7.810869,-2.8617 -1.911364,-1.9077 -2.867041,-4.4881 -2.867041,-7.7411 0,-3.3631 0.906671,-6.029 2.720013,-7.998 1.825593,-1.981 4.282188,-2.9716 7.369785,-2.9717 2.769008,1e-4 4.95604,0.8928 6.56112,2.6782 1.61728,1.7732 2.42593,4.1886 2.42596,7.2459 m -3.38164,-0.9906 c -0.0246,-1.8466 -0.54525,-3.3203 -1.56218,-4.4209 -1.004699,-1.1006 -2.340202,-1.651 -4.006505,-1.651 -1.88687,0 -3.400031,0.532 -4.53949,1.5959 -1.127218,1.0641 -1.776597,2.5621 -1.948119,4.4944 l 12.056294,-0.018" />
    <path
       transform="translate(0,-924.36218)"
       style="font-size:40px;font-style:normal;font-weight:normal;line-height:125%;letter-spacing:0px;word-spacing:0px;fill:#000000;fill-opacity:1;stroke:none;font-family:Sans"
       inkscape:connector-curvature="0"
       id="path3002"
       d="m 114.34428,996.35142 0,5.83338 6.96545,0 0,2.6232 -6.96545,0 0,11.1532 c -1e-5,1.6753 0.22666,2.7515 0.68,3.2285 0.46558,0.4769 1.40288,0.7154 2.81191,0.7154 l 3.47354,0 0,2.8249 -3.47354,0 c -2.60976,0 -4.41085,-0.483 -5.40328,-1.4492 -0.99244,-0.9782 -1.48865,-2.7516 -1.48865,-5.3196 l 0,-11.1532 -2.4811,0 0,-2.6232 2.4811,0 0,-5.83338 3.40002,0" />
    <path
       transform="translate(0,-924.36218)"
       style="font-size:40px;font-style:normal;font-weight:normal;line-height:125%;letter-spacing:0px;word-spacing:0px;fill:#000000;fill-opacity:1;stroke:none;font-family:Sans"
       inkscape:connector-curvature="0"
       id="path3004"
       d="m 36.795605,1035.9038 c -2.2e-5,-1.3484 -0.936131,-2.4046 -2.808295,-3.1685 -1.849954,-0.7706 -4.401932,-1.1558 -7.655978,-1.1558 -3.25408,0 -5.817207,0.3852 -7.689393,1.1558 -1.849932,0.7639 -2.774892,1.8201 -2.774881,3.1685 -1.1e-5,1.3484 0.924949,2.4079 2.774881,3.1785 1.872186,0.7639 4.435313,1.1458 7.689393,1.1458 3.254046,0 5.806024,-0.3819 7.655978,-1.1458 1.872164,-0.7706 2.808273,-1.8301 2.808295,-3.1785 m -20.928547,-3.8958 c 1.292701,-0.6643 2.91973,-1.1558 4.881097,-1.4747 1.983632,-0.3254 4.346165,-0.4882 7.087632,-0.4882 4.546737,0 8.23543,0.5381 11.066045,1.6141 2.852847,1.0761 4.279282,2.491 4.279315,4.2446 -3.3e-5,1.7537 -1.426468,3.1685 -4.279315,4.2447 -2.830615,1.076 -6.519308,1.6141 -11.066045,1.6141 -2.741467,0 -5.104,-0.1595 -7.087632,-0.4782 -1.961367,-0.3256 -3.588396,-0.8204 -4.881097,-1.4848 l 0,1.674 -6.1849476,0 0,-15.5037 6.1849476,0 0,6.0381" />
    <path
       transform="translate(0,-924.36218)"
       style="font-size:40px;font-style:normal;font-weight:normal;line-height:125%;letter-spacing:0px;word-spacing:0px;fill:#000000;fill-opacity:1;stroke:none;font-family:Sans"
       inkscape:connector-curvature="0"
       id="path3006"
       d="m 70.394939,1035.864 c -4.970267,0 -8.413769,0.1693 -10.330541,0.5081 -1.916781,0.3388 -2.875178,0.9167 -2.875156,1.7338 -2.2e-5,0.6509 0.713206,1.169 2.139663,1.5543 1.4487,0.3787 3.410067,0.5679 5.884057,0.5679 3.410056,0 6.14034,-0.3587 8.190877,-1.076 2.072758,-0.7241 3.109164,-1.6839 3.109198,-2.8797 l 0,-0.4084 -6.118098,0 m 12.269621,-0.7573 0,6.3669 -6.151523,0 0,-1.6939 c -1.404181,0.6776 -3.153793,1.1791 -5.248861,1.5047 -2.0951,0.3187 -4.658227,0.4782 -7.689391,0.4782 -3.833565,0 -6.88705,-0.3189 -9.160425,-0.9566 -2.251097,-0.6443 -3.376652,-1.5045 -3.376641,-2.5806 -1.1e-5,-1.2554 1.404148,-2.202 4.212443,-2.8397 2.830582,-0.6377 7.043036,-0.9566 12.637373,-0.9566 l 8.625502,0 0,-0.1793 c -3.4e-5,-0.8436 -0.936132,-1.4945 -2.808318,-1.9529 -1.849932,-0.465 -4.457643,-0.6975 -7.823125,-0.6975 -2.139674,0 -4.223602,0.076 -6.251808,0.2292 -2.028229,0.1528 -3.978447,0.3819 -5.850632,0.6875 l 0,-1.6938 c 2.251098,-0.2591 4.435324,-0.4518 6.5527,-0.578 2.117353,-0.1328 4.179006,-0.1992 6.184969,-0.1992 5.415974,0 9.461259,0.4184 12.135876,1.2554 2.67454,0.837 4.011827,2.1057 4.011861,3.8062" />
    <path
       transform="translate(0,-924.36218)"
       style="font-size:40px;font-style:normal;font-weight:normal;line-height:125%;letter-spacing:0px;word-spacing:0px;fill:#000000;fill-opacity:1;stroke:none;font-family:Sans"
       inkscape:connector-curvature="0"
       id="path3008"
       d="m 95.368771,1025.9699 6.151529,0 0,15.5037 -6.151529,0 0,-15.5037" />
    <path
       transform="translate(0,-924.36218)"
       style="font-size:40px;font-style:normal;font-weight:normal;line-height:125%;letter-spacing:0px;word-spacing:0px;fill:#000000;fill-opacity:1;stroke:none;font-family:Sans"
       inkscape:connector-curvature="0"
       id="path3010"
       d="m 114.35825,1025.9699 6.15152,0 0,15.5037 -6.15152,0 0,-15.5037" />
  </g>
  <g
     style="display:inline"
     inkscape:label="logo copy"
     id="g3043"
     inkscape:groupmode="layer"
     sodipodi:insensitive="true">
    <path
       style="font-size:40px;font-style:normal;font-weight:normal;line-height:125%;letter-spacing:0px;word-spacing:0px;fill:#1a1a1a;fill-opacity:1;stroke:none;font-family:Sans"
       d="m 6.9585992,16.281096 c 0,27.634679 0,55.269357 0,82.904035 5.5626508,-0.655406 13.7531818,1.317059 17.6609498,-0.993234 0,-11.060079 0,-22.120158 0,-33.180237 10.50597,0.336862 24.298169,-2.517976 30.852344,8.132107 5.870499,8.42281 10.924827,17.41638 16.512521,26.041364 7.023083,0.637021 14.518832,-1.33289 21.199347,1.055309 0,6.17668 0,12.35335 0,18.53003 6.946509,0.93538 12.438039,0.41576 10.087539,-7.94587 0.20677,-5.04591 -1.42517,-11.275925 3.10386,-13.377629 1.05961,-6.019649 -0.52672,-7.323331 -5.33864,-4.252284 -2.851664,1.061524 -7.896686,1.315502 -8.939108,-2.452048 4.610405,-1.400732 15.169508,3.147235 15.053708,-2.979703 0.86591,-2.082612 -2.58996,-6.63576 1.48985,-5.431751 0.73891,5.341261 -2.26231,14.135374 4.06606,17.040178 -1.59597,4.435857 -0.22573,11.837947 -0.68286,17.412637 1.06088,3.82234 13.97092,3.57519 10.08754,-3.97294 -0.19314,-6.00769 0.0107,-11.61837 0.80701,-16.63667 2.28191,-6.106645 -7.69748,0.260262 -6.9216,-4.748902 -2.90683,-8.90761 3.42828,-8.573308 6.9216,-11.080772 1.39619,-7.490093 -9.59633,-2.591495 -7.91484,-10.366884 -8.00781,-2.151868 -6.13777,5.574119 -8.81496,8.752878 0.43416,4.540256 -0.32538,1.755628 -1.92438,-0.155193 -2.2126,-2.505742 -5.626638,-3.545491 -8.877039,-3.321127 0,-10.356538 0,-20.713077 0,-31.069615 -4.577268,-0.163739 -7.104849,0.694086 -11.235965,-0.496616 -12.117127,-0.520445 -14.741929,18.187076 -5.773175,23.992818 2.832479,1.823868 6.666095,1.885464 9.652998,0.43454 -2.282035,4.728956 2.739194,8.669801 1.73816,8.845994 -3.7306,2.268567 -5.565878,6.662613 -5.524867,10.89454 -6.699774,-9.707219 -11.62452,-21.618215 -21.633888,-28.276142 8.655023,-2.789353 14.265493,-12.376993 13.750089,-20.609614 2.12495,4.919653 8.698161,5.737553 13.129318,3.631513 7.003103,3.510823 8.577751,-2.918988 7.325104,-9.404688 1.07037,-6.08645 -1.340355,-14.290457 -8.473531,-14.774362 -3.78987,-0.331011 -9.333723,-0.100178 -11.267002,2.855549 -0.701724,5.405797 -0.05424,7.956579 4.99721,4.3454 2.197847,-0.573833 5.230377,-1.210003 6.983679,0.651811 C 83.728543,25.618321 76.383802,27.396321 75.678006,33.600621 73.363009,20.858266 59.743482,15.298011 48.146788,14.66709 34.4408,13.818256 20.683682,14.525548 6.9585992,14.294627 l 0,0.993234 0,0.993235 z M 109.32382,18.298604 c -11.884468,0.11877 -14.932295,18.164089 -5.40071,23.74451 4.45461,2.549352 10.11676,1.857218 14.55709,-0.372463 0.42815,-5.175494 0.63007,-9.456366 -4.7489,-5.338635 -3.88722,2.031466 -8.66769,-0.97603 -7.8838,-5.43175 -0.77033,-4.719762 4.53195,-7.445776 8.41145,-5.090328 5.22607,5.37224 5.2726,-3.18978 3.31461,-5.992546 -2.57571,-1.195571 -5.39731,-1.74084 -8.24974,-1.518788 z m -69.464331,8.970148 c 7.7674,-0.585234 18.706166,2.887811 18.002374,12.384391 0.658424,8.950011 -9.352447,12.829856 -16.884985,12.384392 -5.087707,-0.695814 -12.952619,1.385575 -16.357329,-0.993234 0,-7.925184 0,-15.850365 0,-23.775549 5.07998,0 10.15996,0 15.23994,0 z m 47.426943,5.617982 c 4.179352,-0.895134 0.616064,4.696453 -1.986469,4.003976 -3.359753,0.574468 -2.967173,-4.817976 0.372464,-3.879821 0.538861,-0.01523 1.074039,-0.132235 1.614005,-0.124155 z m 10.67727,13.28451 c 0.942108,6.921979 -2.751139,17.322733 4.531638,21.851157 2.81751,1.478501 6.45402,1.501831 9.24949,-0.03104 6.87382,3.645406 8.64763,-2.846838 7.3251,-9.342612 -1.42244,-4.723197 3.52736,-15.818627 -3.97294,-14.463976 -6.5414,-0.902728 -2.01626,9.261081 -3.35216,13.563858 1.21872,4.041494 -6.12001,6.664943 -6.36291,1.893353 -0.78228,-4.848283 1.29393,-12.280231 -1.05531,-15.457211 -1.98206,0.727701 -7.443256,-1.737215 -6.362908,1.986469 z m -13.656973,4.314362 c 4.809716,0.456534 4.852136,8.548548 1.831276,11.32908 -4.455585,2.455181 -6.649235,-4.011543 -5.369673,-7.542374 0.198887,-1.865143 1.414559,-3.927313 3.538397,-3.786706 z m 11.98089,31.59727 c 1.722898,-0.570024 5.071731,3.14425 1.179485,2.057297 -2.101964,0.150158 -7.349224,0.588155 -3.352185,-1.653796 0.698589,-0.288775 1.416321,-0.395428 2.1727,-0.403501 z M 8.0759879,101.35783 c 0.6644966,5.4708 -1.3313628,13.60195 0.9932344,17.41264 4.2013387,0.5951 7.7790827,-0.69851 10.9255787,-0.34143 8.0785,0.81769 18.287858,1.90602 24.458397,-4.3454 3.218352,-5.30899 -3.291005,-9.36291 -7.852759,-9.83922 -6.025071,-1.12702 -12.442836,-1.20345 -18.405876,0.24831 3.356041,-7.175548 -9.658934,-6.548883 -10.1185751,-3.1349 z m 55.3728181,2.11063 c -3.687725,0.6001 -9.517567,-0.45548 -11.577388,1.95542 0.986995,3.23517 -0.542667,4.62129 -2.38997,6.61122 -1.779966,5.48819 6.147678,6.72429 9.994421,6.89056 4.996349,0.22516 10.099452,0.27527 14.960593,-0.96219 4.280349,2.06735 13.298038,1.92163 10.087538,-6.14564 0.782934,-7.45804 -8.931935,-8.08672 -14.184629,-8.31833 -2.296649,-0.0351 -4.593886,-0.10534 -6.890565,-0.031 z m -36.842789,5.46278 c 2.165031,0.24493 8.296821,-0.22101 8.194184,2.76244 -4.670757,2.68168 -11.757437,2.71519 -16.450445,-0.0621 -0.278621,-2.43223 4.524625,-2.27685 6.145638,-2.63828 0.703626,-0.0125 1.406867,-0.0558 2.110623,-0.0621 z m 42.026231,4.25229 c 3.446841,0.0394 -4.024871,0.62445 -5.835251,0.27935 -0.840002,-0.16421 4.820388,-0.26517 5.835251,-0.27935 z"
       id="path3067"
       inkscape:connector-curvature="0" />
    <path
       style="font-size:40px;font-style:normal;font-weight:normal;line-height:125%;letter-spacing:0px;word-spacing:0px;fill:#ffffff;fill-opacity:1;stroke:none;font-family:Sans"
       d="m 8.5625,15.9375 0,81.46875 13.78125,0 0,-34.40625 15.03125,0 c 5.458708,0 9.767414,0.87382 12.90625,2.65625 3.184218,1.78276 6.446206,5.41821 9.8125,10.875 l 13.03125,20.875 14.8125,0 -14,-22.25 c -2.820432,-4.58344 -5.648465,-8.19328 -8.46875,-10.8125 -2.774935,-2.61908 -5.636992,-4.32488 -8.59375,-5.125 5.686134,-1.30973 10.011852,-3.64802 12.96875,-7.03125 3.00224,-3.38294 4.49992,-7.65196 4.5,-12.78125 C 74.34367,31.54882 71.481618,25.67378 65.75,21.78125 60.01824,17.889 51.33279,15.93759 39.6875,15.9375 l -31.125,0 z m 77.59375,4 c -1.102719,2e-5 -2.242287,0.09919 -3.40625,0.34375 -1.163978,0.23238 -2.35627,0.58558 -3.59375,1.0625 l 0,3.125 c 1.029191,-0.56253 2.103782,-0.96871 3.21875,-1.25 1.114955,-0.28126 2.261267,-0.43748 3.4375,-0.4375 1.85009,2e-5 3.295542,0.42522 4.3125,1.28125 1.02918,0.84385 1.531233,2.04064 1.53125,3.59375 l 0,0.34375 -4.75,0 c -3.075343,10e-6 -5.381461,0.57599 -6.9375,1.75 -1.543798,1.17402 -2.312502,2.93867 -2.3125,5.25 -2e-6,1.98116 0.606262,3.56375 1.84375,4.75 1.249733,1.17401 2.923842,1.75 5.03125,1.75 1.666307,0 3.098269,-0.288 4.25,-0.875 1.151705,-0.59924 2.103087,-1.53386 2.875,-2.78125 l 0,3.125 3.375,0 0,-11.71875 c -2e-5,-3.13068 -0.717239,-5.45909 -2.1875,-7 -1.470295,-1.54088 -3.710197,-2.31248 -6.6875,-2.3125 z m 24.75,0 c -3.21012,2e-5 -5.74366,0.95502 -7.59375,2.875 -1.83786,1.92002 -2.75001,4.55543 -2.75,7.90625 -1e-5,3.30193 0.89315,5.93054 2.71875,7.875 1.82559,1.94445 4.3064,2.90625 7.40625,2.90625 1.13946,0 2.21404,-0.12363 3.21875,-0.34375 1.01692,-0.22013 1.99405,-0.52849 2.9375,-0.96875 l 0,-3.125 c -0.9557,0.52586 -1.93834,0.91845 -2.90625,1.1875 -0.9557,0.25681 -1.89483,0.37501 -2.875,0.375 -2.19317,1e-5 -3.91203,-0.68059 -5.125,-2.0625 -1.21299,-1.39414 -1.81251,-3.33673 -1.8125,-5.84375 -1e-5,-2.50699 0.59951,-4.46182 1.8125,-5.84375 1.21297,-1.39413 2.93183,-2.09373 5.125,-2.09375 0.98017,2e-5 1.9193,0.13722 2.875,0.40625 0.96791,0.25684 1.95055,0.66165 2.90625,1.1875 l 0,-3.15625 c -0.9312,-0.42801 -1.91383,-0.76083 -2.90625,-0.96875 -0.99246,-0.22011 -1.98981,-0.31248 -3.03125,-0.3125 z M 22.34375,25 39.6875,25 c 6.641436,0 11.63371,1.21899 15,3.65625 3.411658,2.40095 5.124938,5.9847 5.125,10.75 -6.2e-5,4.76554 -1.713342,8.4014 -5.125,10.875 -3.36629,2.43726 -8.358564,3.65625 -15,3.65625 l -17.34375,0 0,-28.9375 z m 65.9375,5.65625 3.375,0 0,0.75 c -1.7e-5,2.20128 -0.579299,3.94827 -1.71875,5.28125 -1.127228,1.32077 -2.625405,2 -4.5,2 -1.360017,0 -2.422356,-0.36542 -3.21875,-1.0625 -0.784156,-0.7093 -1.187505,-1.64527 -1.1875,-2.84375 -5e-6,-1.50419 0.540043,-2.59504 1.59375,-3.21875 1.053693,-0.62369 2.923969,-0.90624 5.65625,-0.90625 z m -4.6875,14.875 c -2.487233,2e-5 -4.494208,1.01888 -6.0625,3 -1.55605,1.98116 -2.34375,4.58398 -2.34375,7.8125 0,3.22855 0.7877,5.83135 2.34375,7.8125 1.568292,1.98114 3.575267,2.96875 6.0625,2.96875 1.519277,0 2.82803,-0.28798 3.90625,-0.875 1.090435,-0.59924 1.976854,-1.52706 2.6875,-2.75 l 0,10.90625 3.40625,0 0,-28.375 -3.40625,0 0,3.125 C 89.476854,47.93333 88.590435,47.02453 87.5,46.4375 86.42178,45.83829 85.113027,45.53127 83.59375,45.53125 z m 16.59375,0.5 0,12.4375 c 0,2.82498 0.61851,4.96999 1.84375,6.4375 1.22522,1.46752 3.01029,2.21875 5.375,2.21875 1.43351,0 2.70303,-0.307 3.78125,-0.90625 1.09045,-0.61147 2.05408,-1.53385 2.875,-2.78125 l 0,3.15625 3.375,0 0,-20.5625 -3.375,0 0,11.65625 c -1e-5,2.00561 -0.52781,3.58822 -1.59375,4.75 -1.0537,1.16178 -2.51816,1.75 -4.34375,1.75 -1.51929,0 -2.64661,-0.50263 -3.40625,-1.46875 -0.75965,-0.97834 -1.12501,-2.43053 -1.125,-4.375 l 0,-12.3125 -3.40625,0 z m -15.75,2.34375 c 1.78883,2e-5 3.189535,0.70642 4.21875,2.125 1.029177,1.40639 1.531231,3.36122 1.53125,5.84375 -1.9e-5,2.48256 -0.502073,4.42515 -1.53125,5.84375 -1.029215,1.40637 -2.42992,2.09375 -4.21875,2.09375 -1.788848,0 -3.220814,-0.68738 -4.25,-2.09375 -1.016945,-1.4186 -1.500009,-3.36119 -1.5,-5.84375 -9e-6,-2.48253 0.483055,-4.43736 1.5,-5.84375 1.029186,-1.41858 2.461152,-2.12498 4.25,-2.125 z m 26.5,23.625 0,5.8125 -2.46875,0 0,2.625 2.46875,0 0,11.15625 c 0,2.568 0.50756,4.3343 1.5,5.3125 0.99243,0.9662 2.79649,1.46875 5.40625,1.46875 l 3.46875,0 0,-2.84375 -3.46875,0 c -1.40903,0 -2.34692,-0.24185 -2.8125,-0.71875 -0.45334,-0.477 -0.68751,-1.54345 -0.6875,-3.21875 l 0,-11.15625 6.96875,0 0,-2.625 -6.96875,0 0,-5.8125 -3.40625,0 z m -14.46875,5.3125 c -3.087597,1e-4 -5.549407,1.019 -7.375,3 -1.813342,1.969 -2.71875,4.6369 -2.71875,8 0,3.253 0.963636,5.81105 2.875,7.71875 1.923615,1.9079 4.528859,2.875 7.8125,2.875 1.31098,0 2.600745,-0.13715 3.875,-0.40625 1.27423,-0.269 2.50575,-0.6738 3.71875,-1.1875 l 0,-3.1875 c -1.20074,0.6359 -2.39979,1.1196 -3.625,1.4375 -1.213001,0.318 -2.482521,0.46875 -3.78125,0.46875 -2.242184,0 -3.988015,-0.6018 -5.25,-1.8125 -1.249742,-1.223 -1.946731,-2.989 -2.09375,-5.3125 l 15.53125,0 0,-1.65625 c -3e-5,-3.0573 -0.78897,-5.4768 -2.40625,-7.25 -1.60508,-1.7854 -3.793492,-2.6874 -6.5625,-2.6875 z M 96.5,80.1875 c 1.666303,0 2.995301,0.55565 4,1.65625 1.01693,1.1006 1.5379,2.55965 1.5625,4.40625 L 90,86.28125 c 0.171522,-1.9323 0.841532,-3.4359 1.96875,-4.5 1.139459,-1.0639 2.64438,-1.59375 4.53125,-1.59375 z m -86.8125,21.40625 0,15.53125 6.1875,0 0,-1.6875 c 1.292701,0.6644 2.913633,1.1744 4.875,1.5 1.983632,0.3187 4.352283,0.46875 7.09375,0.46875 4.546737,0 8.231885,-0.549 11.0625,-1.625 2.852847,-1.0762 4.281217,-2.4963 4.28125,-4.25 -3.3e-5,-1.7536 -1.428403,-3.14265 -4.28125,-4.21875 -2.830615,-1.076 -6.515763,-1.625 -11.0625,-1.625 -2.741467,0 -5.110118,0.14335 -7.09375,0.46875 -1.961367,0.3189 -3.582299,0.8357 -4.875,1.5 l 0,-6.0625 -6.1875,0 z m 85.6875,0 0,15.53125 6.15625,0 0,-15.53125 -6.15625,0 z m 18.96875,0 0,15.53125 6.15625,0 0,-15.53125 -6.15625,0 z m -47.8125,4.09375 c -2.005963,0 -4.070147,0.0547 -6.1875,0.1875 -2.117376,0.1262 -4.311402,0.33465 -6.5625,0.59375 l 0,1.6875 c 1.872185,-0.3056 3.815521,-0.5347 5.84375,-0.6875 2.028206,-0.1532 4.110326,-0.21875 6.25,-0.21875 3.365482,0 5.993818,0.2225 7.84375,0.6875 1.872186,0.4584 2.781216,1.0939 2.78125,1.9375 l 0,0.1875 -8.625,0 c -5.594337,0 -9.794418,0.33105 -12.625,0.96875 -2.808295,0.6377 -4.218761,1.58835 -4.21875,2.84375 -1.1e-5,1.0761 1.123903,1.9182 3.375,2.5625 2.273375,0.6377 5.322685,0.96875 9.15625,0.96875 3.031164,0 5.5924,-0.15005 7.6875,-0.46875 2.095068,-0.3256 3.845819,-0.85365 5.25,-1.53125 l 0,1.71875 6.15625,0 0,-6.375 c -3.4e-5,-1.7005 -1.32546,-2.9755 -4,-3.8125 -2.674617,-0.837 -6.709026,-1.25 -12.125,-1.25 z m -40.1875,1.53125 c 3.254046,0 5.806296,0.38565 7.65625,1.15625 1.872164,0.7639 2.781228,1.80785 2.78125,3.15625 -2.2e-5,1.3484 -0.909086,2.4169 -2.78125,3.1875 -1.849954,0.7639 -4.402204,1.15625 -7.65625,1.15625 -3.25408,0 -5.815314,-0.39235 -7.6875,-1.15625 -1.849932,-0.7706 -2.781261,-1.8391 -2.78125,-3.1875 -1.1e-5,-1.3484 0.931318,-2.39235 2.78125,-3.15625 1.872186,-0.7706 4.43342,-1.15625 7.6875,-1.15625 z m 44.0625,4.28125 6.09375,0 0,0.40625 c -3.4e-5,1.1958 -1.020992,2.1509 -3.09375,2.875 -2.050537,0.7173 -4.777444,1.09375 -8.1875,1.09375 -2.47399,0 -4.4263,-0.1838 -5.875,-0.5625 -1.426457,-0.3853 -2.156272,-0.9116 -2.15625,-1.5625 -2.2e-5,-0.8171 0.958219,-1.4112 2.875,-1.75 1.916772,-0.3388 5.373483,-0.5 10.34375,-0.5 z"
       id="path3045"
       inkscape:connector-curvature="0" />
  </g>
  <g
     inkscape:groupmode="layer"
     id="layer3"
     inkscape:label="shine"
     sodipodi:insensitive="true">
    <path
       transform="translate(0,-924.36218)"
       style="opacity:0.38999999;fill:#cccccc"
       d="m 24,924.36212 80,0 c 13.296,0 24,10.704 24,24 l 0,16 c 0,13.296 0,24 0,24 l -128,0 c 0,0 0,-10.704 0,-24 l 0,-16 c 0,-13.296 10.704,-24 24,-24 z"
       id="rect3025"
       inkscape:connector-curvature="0"
       sodipodi:nodetypes="ssssccsss" />
  </g>
</svg>
